<?xml version="1.0" standalone="no"?>
<!DOCTYPE svg PUBLIC "-//W3C//DTD SVG 20010904//EN"
 "http://www.w3.org/TR/2001/REC-SVG-20010904/DTD/svg10.dtd">
<svg version="1.0" xmlns="http://www.w3.org/2000/svg"
 width="512.000000pt" height="512.000000pt" viewBox="0 0 512.000000 512.000000"
 preserveAspectRatio="xMidYMid meet">

<g transform="translate(0.000000,512.000000) scale(0.100000,-0.100000)"
fill="#000000" stroke="none">
<path d="M483 5099 c-24 -12 -52 -37 -65 -57 l-23 -37 -3 -1430 -2 -1430 22
-45 c13 -25 38 -55 57 -67 l34 -23 652 0 652 0 21 23 c39 41 23 96 -32 117
-15 5 -68 10 -117 10 l-89 0 0 140 0 140 98 0 c58 0 107 5 122 13 30 15 45 54
36 91 -14 56 -18 56 -686 56 l-610 0 0 965 0 965 965 0 965 0 0 -620 c0 -441
3 -626 11 -644 7 -14 24 -29 39 -35 37 -12 92 14 101 49 4 14 7 301 8 638 l1
612 970 0 970 0 0 -970 0 -970 -633 0 -634 0 -21 -23 c-27 -29 -28 -67 -3 -98
18 -22 28 -24 130 -27 l111 -4 0 -139 0 -139 -89 0 c-95 0 -136 -10 -157 -38
-21 -26 -16 -66 9 -90 l23 -22 651 0 650 0 34 23 c19 12 44 42 57 67 l22 45
-2 1430 -3 1430 -23 37 c-13 21 -40 45 -66 57 l-42 21 -2035 0 -2034 0 -42
-21z m435 -271 l-3 -143 -185 0 -185 0 -3 129 c-1 72 0 136 2 143 4 10 48 13
191 13 l186 0 -3 -142z m522 -3 l0 -145 -185 0 -185 0 0 145 0 145 185 0 185
0 0 -145z m520 0 l0 -145 -185 0 -185 0 0 145 0 145 185 0 185 0 0 -145z m520
0 l0 -145 -182 2 -183 3 -3 143 -3 142 186 0 185 0 0 -145z m528 3 l-3 -143
-182 -3 -183 -2 0 145 0 145 185 0 186 0 -3 -142z m522 -3 l0 -145 -185 0
-185 0 0 145 0 145 185 0 185 0 0 -145z m520 0 l0 -145 -185 0 -185 0 0 145 0
145 185 0 185 0 0 -145z m525 0 l0 -140 -185 0 -185 0 -3 143 -3 142 188 -2
188 -3 0 -140z m-3655 -2525 l0 -140 -190 0 -190 0 0 140 0 140 190 0 190 0 0
-140z m520 0 l0 -140 -185 0 -185 0 0 140 0 140 185 0 185 0 0 -140z m2610 0
l0 -140 -185 0 -185 0 0 140 0 140 185 0 185 0 0 -140z m530 0 l0 -140 -190 0
-190 0 0 140 0 140 190 0 190 0 0 -140z"/>
<path d="M1412 4310 c-58 -46 -107 -111 -135 -184 -27 -68 -29 -210 -4 -282
11 -32 185 -303 453 -705 l435 -654 -10 -42 c-14 -54 -14 -152 0 -207 l11 -44
-222 -333 c-123 -184 -224 -336 -226 -337 -1 -2 -26 1 -56 7 -75 17 -232 15
-308 -3 -159 -38 -264 -97 -385 -220 -76 -76 -99 -107 -138 -186 -97 -198
-111 -406 -40 -604 191 -533 870 -689 1267 -292 134 134 204 278 225 466 21
187 -19 340 -138 533 -13 22 -1 41 200 345 118 177 216 321 219 321 3 0 101
-144 219 -321 201 -304 213 -323 200 -345 -119 -192 -159 -346 -138 -533 21
-187 91 -332 225 -466 339 -339 911 -282 1180 118 156 233 174 520 47 778 -78
157 -243 308 -407 371 -127 48 -303 64 -424 38 -30 -6 -55 -9 -56 -7 -2 1
-104 154 -226 338 l-223 334 11 43 c15 54 15 151 1 207 l-11 44 423 633 c232
349 433 658 446 687 65 140 39 329 -59 441 -83 95 -142 115 -190 64 -14 -16
-248 -362 -521 -771 l-495 -744 -274 409 c-151 224 -381 568 -510 765 -130
196 -245 361 -256 367 -35 19 -58 13 -110 -29z m568 -920 c311 -467 514 -763
528 -769 13 -6 44 -11 70 -11 167 0 301 -201 237 -353 -31 -74 -32 -72 243
-485 143 -213 266 -393 275 -401 22 -18 47 -17 135 4 95 23 240 17 332 -15
329 -112 505 -471 390 -796 -61 -175 -213 -321 -394 -381 -67 -22 -100 -26
-191 -26 -94 0 -121 3 -190 27 -265 91 -425 313 -425 590 0 143 43 269 132
383 32 42 39 59 36 85 -6 49 -520 816 -550 822 -13 3 -46 7 -75 10 -94 9 -169
61 -213 149 -35 70 -39 136 -14 211 9 26 14 59 12 74 -2 15 -202 324 -445 688
-242 363 -446 677 -453 698 -17 54 -9 152 19 209 12 26 26 47 29 47 4 0 234
-342 512 -760z m1701 713 c28 -58 36 -155 19 -210 -9 -27 -617 -949 -821
-1246 -4 -5 -28 8 -55 29 -27 20 -64 43 -82 51 l-32 13 47 73 c470 710 889
1337 895 1337 3 0 17 -21 29 -47z m-1310 -2142 l39 -18 -225 -339 c-162 -245
-225 -347 -225 -368 0 -19 14 -47 39 -80 88 -113 131 -240 131 -382 0 -277
-160 -499 -425 -590 -69 -24 -96 -27 -190 -27 -91 0 -124 4 -191 26 -435 143
-574 690 -257 1014 122 124 248 182 416 191 73 3 115 0 169 -13 88 -21 113
-22 135 -4 9 8 75 102 146 209 72 107 173 257 225 333 l94 138 40 -37 c22 -20
58 -44 79 -53z"/>
<path d="M2514 2397 c-55 -48 -24 -127 51 -127 76 0 98 107 28 139 -35 16 -49
14 -79 -12z"/>
<path d="M3511 1185 c-212 -48 -359 -266 -323 -475 39 -221 222 -370 441 -358
139 8 252 73 329 188 53 79 77 168 69 262 -7 91 -12 105 -48 123 -21 11 -35
12 -55 5 -47 -18 -55 -37 -48 -117 7 -93 -13 -160 -69 -221 -52 -56 -106 -83
-177 -89 -213 -20 -363 207 -265 398 24 45 84 100 134 122 37 16 65 20 138 19
88 -2 93 -1 112 24 12 15 21 33 21 40 0 27 -23 62 -48 73 -41 19 -142 22 -211
6z"/>
<path d="M1438 1190 c-156 -28 -292 -156 -334 -314 -42 -156 18 -332 148 -436
132 -105 330 -119 475 -33 138 80 227 257 209 413 -11 93 -58 135 -116 105
-35 -18 -45 -48 -37 -113 20 -177 -119 -325 -293 -309 -189 17 -305 224 -220
390 55 106 132 148 278 150 91 2 96 3 115 29 25 33 16 70 -23 100 -30 22 -131
31 -202 18z"/>
</g>
</svg>
