<?xml version="1.0" standalone="no"?>
<!DOCTYPE svg PUBLIC "-//W3C//DTD SVG 20010904//EN"
 "http://www.w3.org/TR/2001/REC-SVG-20010904/DTD/svg10.dtd">
<svg version="1.0" xmlns="http://www.w3.org/2000/svg"
 width="512.000000pt" height="512.000000pt" viewBox="0 0 512.000000 512.000000"
 preserveAspectRatio="xMidYMid meet">

<g transform="translate(0.000000,512.000000) scale(0.100000,-0.100000)"
fill="#000000" stroke="none">
<path d="M51 4544 c-53 -38 -51 37 -51 -1624 l0 -1540 29 -32 29 -33 841 -3
841 -2 0 -220 0 -220 -234 0 c-200 0 -237 -2 -250 -16 -23 -23 -23 -245 0
-268 14 -14 121 -16 1029 -16 908 0 1015 2 1029 16 23 23 23 245 0 268 -13 14
-50 16 -250 16 l-234 0 0 220 0 220 130 0 130 0 0 440 0 440 -1419 0 c-1277 0
-1421 2 -1435 16 -14 14 -16 124 -16 1063 0 1002 1 1049 18 1064 17 16 173 17
2048 17 1116 0 2034 -4 2040 -8 33 -22 34 -44 34 -1046 l0 -996 105 0 105 0
-2 1101 -3 1101 -33 29 -32 29 -2213 0 c-2029 0 -2214 -1 -2236 -16z"/>
<path d="M4347 1463 c-3 -5 28 -98 69 -208 41 -110 102 -275 136 -367 34 -93
67 -168 73 -168 6 0 44 34 85 75 44 45 83 75 95 75 12 0 54 -34 105 -85 47
-47 93 -85 103 -85 19 0 107 86 107 105 0 6 -40 51 -90 100 -49 49 -90 97 -90
105 0 9 34 49 75 90 42 41 74 81 73 88 -2 8 -75 40 -163 73 -358 133 -566 209
-570 209 -2 0 -6 -3 -8 -7z"/>
</g>
</svg>
